<?xml version="1.0" standalone="no"?>
<!DOCTYPE svg PUBLIC "-//W3C//DTD SVG 20010904//EN"
 "http://www.w3.org/TR/2001/REC-SVG-20010904/DTD/svg10.dtd">
<svg version="1.0" xmlns="http://www.w3.org/2000/svg"
 width="492.000000pt" height="492.000000pt" viewBox="0 0 492.000000 492.000000"
 preserveAspectRatio="xMidYMid meet">
<metadata>
Created by potrace 1.14, written by Peter Selinger 2001-2017
</metadata>
<g transform="translate(0.000000,492.000000) scale(0.100000,-0.100000)"
fill="#000000" stroke="none">
<path d="M1746 4708 c-13 -18 -13 -25 -3 -34 12 -12 276 -197 792 -554 154
-107 282 -196 285 -199 3 -4 13 -10 22 -16 21 -12 298 -204 498 -345 138 -97
513 -358 755 -525 168 -116 608 -422 718 -499 65 -45 69 -47 82 -29 8 10 15
23 15 29 0 6 -75 63 -167 127 -93 64 -195 135 -228 158 -55 38 -438 305 -630
438 -101 70 -585 407 -605 421 -24 17 -1321 919 -1365 949 -22 15 -64 44 -92
64 -29 20 -55 37 -57 37 -3 0 -12 -10 -20 -22z"/>
<path d="M758 3479 c-8 -5 -13 -604 -9 -972 l1 -48 83 3 82 3 0 363 c0 199 1
362 2 362 2 0 294 -514 383 -672 l32 -58 94 0 94 0 0 510 c0 401 -3 510 -12
511 -55 4 -126 3 -138 -2 -13 -6 -15 -56 -15 -373 0 -201 -3 -362 -7 -358 -4
4 -47 79 -96 167 -49 88 -99 177 -110 197 -12 21 -38 68 -58 105 -21 37 -47
84 -59 103 -12 19 -32 55 -44 80 -41 83 -42 83 -132 84 -44 1 -85 -2 -91 -5z"/>
<path d="M3251 3390 c1 -8 1 -57 0 -107 l-1 -93 -35 0 c-21 0 -35 -5 -36 -12
-1 -13 -1 -91 0 -119 1 -11 11 -16 32 -17 17 0 33 -2 35 -4 1 -2 4 -107 6
-233 3 -222 4 -231 27 -272 31 -54 72 -73 162 -77 81 -4 82 -3 81 78 -1 88 1
84 -38 84 -20 0 -41 5 -47 11 -17 17 -20 411 -3 412 6 1 29 2 50 3 l40 1 -1
63 c-1 34 -2 67 -2 72 -1 6 -23 10 -50 10 l-48 0 0 100 c0 55 -3 103 -6 106
-3 3 -42 7 -86 7 -67 2 -81 -1 -80 -13z"/>
<path d="M1988 3198 c-31 -4 -72 -14 -91 -22 -78 -32 -146 -121 -164 -214 -12
-60 -8 -263 6 -307 18 -56 67 -127 106 -152 80 -53 225 -68 323 -34 29 10 75
33 102 52 l50 34 -54 53 -53 54 -50 -27 c-123 -63 -255 -20 -276 90 l-6 30
227 0 226 0 1 55 c4 260 -135 416 -347 388z m112 -169 c38 -21 61 -60 74 -121
l6 -28 -144 0 c-80 0 -147 4 -150 8 -3 5 -1 25 5 45 27 98 125 143 209 96z"/>
<path d="M2440 3184 c0 -3 13 -24 29 -47 69 -102 147 -218 157 -237 6 -11 19
-29 28 -39 22 -24 26 -14 -115 -227 -60 -90 -109 -166 -109 -169 0 -3 40 -5
90 -5 l89 0 76 117 77 116 28 -44 c15 -24 48 -77 74 -116 l46 -73 94 0 94 0
-119 177 c-66 98 -119 181 -119 186 0 5 15 32 34 60 73 112 186 295 186 301 0
3 -42 6 -92 6 l-93 0 -55 -98 c-30 -53 -57 -103 -58 -110 -7 -26 -27 -4 -92
101 l-65 107 -92 0 c-51 0 -93 -3 -93 -6z"/>
<path d="M26 2411 c-9 -9 -16 -22 -16 -27 0 -5 52 -45 116 -89 63 -44 136 -95
162 -113 26 -19 335 -234 687 -478 352 -244 647 -450 656 -457 8 -6 23 -16 32
-22 9 -5 130 -89 269 -186 139 -97 471 -328 738 -513 l485 -337 17 22 c10 11
18 24 18 28 -1 3 -125 92 -277 196 -152 105 -281 195 -287 200 -7 6 -19 15
-29 20 -15 9 -434 300 -802 557 -77 54 -147 102 -155 108 -8 6 -75 52 -147
103 -126 87 -544 377 -717 498 -45 30 -180 125 -301 209 -463 322 -430 302
-449 281z"/>
<path d="M2148 2209 c-8 -5 -11 -163 -10 -490 0 -266 1 -495 1 -509 l1 -25
332 2 c183 1 335 2 338 3 3 0 4 19 3 42 -1 24 -2 61 -2 83 l-1 40 -250 -2
-250 -2 0 129 c0 93 3 129 13 132 6 2 101 3 209 3 132 -1 198 2 201 9 2 6 3
43 3 81 l-1 70 -213 3 -212 2 0 135 0 135 252 2 252 3 -2 74 c-1 41 -3 76 -5
78 -7 6 -649 8 -659 2z"/>
<path d="M3110 2212 l-115 -3 2 -502 c1 -276 2 -505 2 -509 1 -5 39 -8 86 -8
l85 0 0 209 0 210 183 0 c100 0 192 0 205 0 21 1 22 5 22 81 l0 80 -205 0
-205 0 0 140 0 140 244 0 244 0 0 80 0 80 -91 1 c-51 0 -148 1 -217 2 -69 1
-177 1 -240 -1z"/>
<path d="M3853 2212 c-30 -3 -33 -7 -34 -35 0 -18 -1 -247 -2 -509 -2 -419 0
-478 13 -479 126 -5 467 2 504 11 132 29 201 108 213 241 10 121 -50 227 -148
259 l-42 14 29 9 c70 23 117 71 139 142 28 91 1 207 -65 272 -61 62 -116 74
-359 76 -119 1 -231 1 -248 -1z m442 -176 c88 -37 93 -167 9 -222 -19 -13 -53
-17 -159 -19 -74 -1 -139 2 -145 5 -14 9 -16 240 -2 249 19 12 263 1 297 -13z
m13 -420 c94 -49 92 -197 -4 -246 -21 -11 -70 -16 -171 -18 -133 -3 -143 -2
-144 15 -1 17 0 146 1 228 l0 41 143 -2 c112 -1 149 -5 175 -18z"/>
</g>
</svg>
